<svg xmlns="http://www.w3.org/2000/svg" viewBox="0 0 400 300"><defs><style>.a{fill:#fff;}.b{fill:#ec1c24;}</style></defs><rect class="a" width="400" height="300"/><path d="M193.78,157.94c3,2.94,5.38.5,9.58-.32s4.12-3.26,5-5.61,2.7-7.91,2.7-7.91a20.69,20.69,0,0,1,4.4-1,23,23,0,0,1,5.73.65s-2.92-2.56-4.76-3.17a22.69,22.69,0,0,0-5.63-.54s-3.4,3.41-6.59,6.43-6.61,2-9.13,1.23-8.47-3.18-8.47-3.18a28.65,28.65,0,0,0,.77,4.24C188,150.86,190.77,155,193.78,157.94Z"/><path d="M216.1,184s-9.44-1.64-13.42-1.59a56.5,56.5,0,0,0-9.57,1.33l1.47,1.05a5.51,5.51,0,0,0,4.78,4.24c4.16.62,5.17.25,9.76-1.34A22.3,22.3,0,0,0,216.1,184Z"/><path d="M134.16,78.23a88.37,88.37,0,0,1,13.65-16.42c4.19-3.69,6.55-5.29,6.58-4.28a23.24,23.24,0,0,1,.24,5.26,44.33,44.33,0,0,1-2.07,8.49,37.17,37.17,0,0,0,3.2-6.69,94.8,94.8,0,0,0,2.31-14.65,10.59,10.59,0,0,1,2.47-5.66,13.08,13.08,0,0,0-3.71,2.65c-1.59,1.7-2.3,3.25-6.18,6.14C148.11,55,143.26,58.28,134.93,71a63.71,63.71,0,0,0-9.52,26.42s1.39-4,2.45-6.42A119.25,119.25,0,0,1,134.16,78.23Z"/><path d="M211.33,39.1c4.77,1.11,9.11,3.5,11.67,4.09s3.19-.48,3.5-1.46-2-.91-3.42-1.08-6.79-2.26-15.27-3.3a50.6,50.6,0,0,0-15.41.51s3.54-.2,5.06-.33A71.84,71.84,0,0,1,211.33,39.1Z"/><path d="M234.74,52.19c1.86,1.33,12.53,8.16,15.64,11.61s7.14,7.79,9.6,11.72,5.89,11,5.89,11A54.07,54.07,0,0,0,258,68.72c-6.18-9.2-10.16-13.33-15.06-17.4s-7.52-5-8.67-6.51a23.56,23.56,0,0,0-2.72-3,23.86,23.86,0,0,1,2,5.43C233.71,49.05,232.88,50.85,234.74,52.19Z"/><path d="M291.77,137.68c0-6.27-1-13.15-4.21-24s-8.07-15.88-8.07-15.88,1.69,3.12,3.47,7.3a125,125,0,0,1,5.12,14.92c1.16,4.4-.29,4.63-2,5.52s-1.4,1.75-1.36,3,.13,3.93-.41,14.4-4.09,14.65-5.45,15.59-3.24-.22-2.27-3.54,4.18-8.35,2.22-26.88c-2-18.88-5.87-27.7-17.79-38.08-23.71-20.64-48.83-23.77-71.7-20.52C157.56,74,143.07,85.79,135.1,95.41c-8.71,10.54-13.82,26.78-13.84,35.85s2.42,19.37,4,24.39,2.64,8.79,1.51,9.27-4.41-1.19-5.8-5a58.34,58.34,0,0,1-4.44-19.44c-.66-10.3-1.2-9.4-3-9.8s-1.72-2.27-1.75-3.22a57.62,57.62,0,0,1,1.69-12.16C115,108.46,117.6,101,117.6,101a121.47,121.47,0,0,0-5.76,15.46c-1.63,6.33-2.52,6.23-3.14,16.45s.25,15.21,1.24,18.34,4.65,2.7,4.65,2.7.63,1.69,2,6.27,5.18,12.95,7.3,13.89a7.78,7.78,0,0,0,4.88,0,53.27,53.27,0,0,0,3,6.75c2.58,5.24,7.06,13.59,19.76,26.41,13.15,13.28,34.62,20.68,53.69,19s34.31-8.31,49-23.18S273,173,273,173a9,9,0,0,0,4.3-.41c2.82-.81,3.15-4.4,5.39-11.32a82.72,82.72,0,0,0,3-11.7s.36-.64,3.61-2.27S291.78,144,291.77,137.68ZM158.78,99c5.14-3.71,11.66-7.58,11.66-7.58s-2.36.43-5.68,1.19a62.08,62.08,0,0,0-9.1,3.11S169,82.32,200.13,81.3c30.3-1,43.2,12.63,43.2,12.63s-5.24-2.11-9-3.28a45.37,45.37,0,0,0-8.47-1.41s8.22,2.91,14,7c9.53,6.72,12,13.93,12,13.93s-15.94-18-53.13-16.82c-35.85,1.18-50.07,16.82-50.07,16.82A39.46,39.46,0,0,1,158.78,99ZM144.2,122.7c4.77-9.19,10.68-14.31,17.67-17.5,4.09-1.86,18.81-6.28,34.6-6.71s29.82,1.58,34.15,3.21c7.87,3,15.38,6.88,19.87,14.85s6,9.65,7.1,17.07c1.19,8.12.05,10.76-.43,14.33s-1.09,5.27-1.94,5.13-.41-4.8-.31-9.28a31.44,31.44,0,0,0-3.22-15.87c-3.18-6.65-9.15-13.47-16.35-16.61s-20.17-6.9-38.64-5.7c-5.68.36-20.16,3.13-26.34,5.28s-15.2,6-18.4,8.89-6.69,6.36-8.63,11a29.58,29.58,0,0,0-1.93,7c-.44,2-1.16,3.16-1.33.63S140.16,130.5,144.2,122.7Zm106.94,15c-.15,3.55-3.54,4.68-6.53,3.76s-4.25-5.94-4.2-9.49,4.1-8.93,4.1-8.93a13.1,13.1,0,0,1,3.87,4.44A19.17,19.17,0,0,1,251.14,137.67Zm-86.38-19.21a32.57,32.57,0,0,1,7.14-4,98.11,98.11,0,0,1,24.58-5.37c9.11-.55,24.76.12,30.83,2.2a5.2,5.2,0,0,1,2,1.54S213,113.32,197,115,164.76,118.46,164.76,118.46ZM151,144.57c-3,1-6.38-.13-6.58-3.68a19.1,19.1,0,0,1,2.63-10.25,13,13,0,0,1,3.8-4.49s4.12,5.32,4.22,8.87S154,143.61,151,144.57Zm98.47,43.9c-14.25,11.49-29.35,18-47.25,18.45-11.5.32-22.28-1.94-33.93-6-14.1-4.94-25-16.59-31.1-25.72-5.16-7.8-9.31-19.72-10.4-31.14s1.45-17.33,2-19.92,2.42,1.21,2.52,3.3c.11,2.32.43,5.48.43,5.48a26.23,26.23,0,0,1,3,1.33,3.32,3.32,0,0,1,1.38,2.2,68.37,68.37,0,0,0,.48,7c.56,5.47,2.45,11.41,7.24,20.92S157,182.18,168.77,188.8c12.91,7.27,27.83,6.14,27.83,6.14s-5.51-.66-10.44-1.43-7.29-2-12-4-11.7-7.51-15.89-14-2.91-10.3-2.5-13.31,1.91-4.67,4.26-5.13,2.84-1.23,1.06-2.65a9.55,9.55,0,0,1-3.44-5.76c-.19-1.89,1-5.91,1.85-7.71s2.49-.08,4.11.37,2.81.55,9.48.24a45,45,0,0,0,12.15-1.84c2.13-.66,3.38-2.39,4.56-5.09a57.63,57.63,0,0,0,2.95-9.22c.78-3.24,2.7-4,5.31-4.23a5.38,5.38,0,0,1,5.2,3.21,88.58,88.58,0,0,0,7.35,11c2.46,2.84,7,2.81,10.4,2.74s9.62-.48,12.54-.41,3.49.77,4.34,2.31a32.16,32.16,0,0,0,2.61,3.38c.44.7.06,2.07-.15,3.26s-1.57,3.55-3.37,6.78,1.57,1.39,2.77.71a7.3,7.3,0,0,1,4.47-.4c1.57.25,2,2.6,2.19,6.18s-.44,4.75-.92,5.49a4.45,4.45,0,0,1-1.61,1.23s-6.13-.22-9.48-.36-8.78.29-8.78.29a24.84,24.84,0,0,1-.47-4.09,19.53,19.53,0,0,0-2.26-8.29c-1.53-3-3.1-.74-7.77,1.23S207,159,207,159c-4.54,2-11.88,6.23-21.92,11.79s-6.93,6.57-6.84,9.27,1.83,1.72,3.37,1.12a52.37,52.37,0,0,1,11.63-3.81c6.5-1.31,8.12-.9,14.78,0s12.68,2.67,15.09,3.86,4-1.61,5.27-2.88-.61-4.33-.61-4.33.6.23,2.31.77,5.68,2,6.84,2.39-.28,3.05-1.31,4.05-5.06,3.93-11.55,7.23-16.44,6.12-16.44,6.12a70.15,70.15,0,0,0,8.61-1.38,99.47,99.47,0,0,0,15.16-5.65c5.74-2.6,13.44-8.81,13.44-8.81l11.76,2.61A56.76,56.76,0,0,1,249.5,188.47Zm-34.82-19.22a15.49,15.49,0,0,1,7,2c.95.61,3.56,3,2.77,4.65s-1.34,3-5.17,2.07-9.76-2.6-16-2.69-10.27,0-13.65,1.13-6,2.65-6.27.84-2.34-2,2.71-4.91,13.71-7.29,16.83-8.79c0,0,6.75-4.16,9.94-4.68s5.91-.23,7.34.9a5.74,5.74,0,0,1,2.39,4.49c.11,2,1.12,3.3-.86,3.49a89.64,89.64,0,0,0-9.64,1l-3.61.71S211.9,169.3,214.68,169.25ZM267.36,178c-1,1.87-1.57,2.33-4.23,2.4s-3.37-.5-4.34-1.74-.32-3.09-.14-4.24,4.25-1.09,6-1.15.22,2.72,1.65,1.79S268.38,176.1,267.36,178Zm3.71-28.45a60.79,60.79,0,0,1-7.5,21.12s-9-2.41-9.71-2.47a69,69,0,0,0,3.3-7.38c1.64-4.28,2.77-8.54,4.33-17.46s2.52-5.66,4.34-6.65,2.07-1.59,2.41-4.05.63-6.45.88-11.78,3.11-.44,3.47,5.47S273.11,137,271.07,149.52Z"/><path class="b" d="M266.32,175c-1.43.93.12-1.85-1.65-1.79s-5.85,0-6,1.15-.83,3,.14,4.24,1.68,1.8,4.34,1.74,3.22-.53,4.23-2.4S267.74,174.09,266.32,175Z"/><path d="M79.12,240.78v2.79H70.93a2.12,2.12,0,0,0-1.59.53,1.93,1.93,0,0,0-.49,1.36,2.37,2.37,0,0,0,.1.7,1.6,1.6,0,0,0,.38.62,1.81,1.81,0,0,0,.72.42,3.45,3.45,0,0,0,1.16.16H75a7.51,7.51,0,0,1,2.68.41,4.43,4.43,0,0,1,1.64,1.08,3.57,3.57,0,0,1,.83,1.51,6.69,6.69,0,0,1,.22,1.71,5.87,5.87,0,0,1-.28,1.87,3.88,3.88,0,0,1-.9,1.48,4.33,4.33,0,0,1-1.57,1,6.93,6.93,0,0,1-2.33.35h-8.9V254h9A2.23,2.23,0,0,0,77,253.4a2,2,0,0,0,.53-1.43,2.34,2.34,0,0,0-.12-.74,1.39,1.39,0,0,0-.4-.64,2.11,2.11,0,0,0-.77-.44A3.81,3.81,0,0,0,75,250H71.31a7.24,7.24,0,0,1-2.63-.4,4.11,4.11,0,0,1-1.6-1.06,3.79,3.79,0,0,1-.8-1.49,6.31,6.31,0,0,1-.22-1.66,6,6,0,0,1,.27-1.83,3.67,3.67,0,0,1,.87-1.46,4.17,4.17,0,0,1,1.55-1,6.66,6.66,0,0,1,2.27-.34Z"/><path d="M96.13,240.78v2.79H90a4.25,4.25,0,0,0-3.38,1.22,8.08,8.08,0,0,0,0,8A4.23,4.23,0,0,0,90,254h6.17v2.79H90a7,7,0,0,1-5.37-2q-1.84-2-1.85-6t1.85-6a7,7,0,0,1,5.37-2Z"/><path d="M102.26,240.78v16H99.47v-16Z"/><path d="M114.92,240.78a7,7,0,0,1,5.36,2q1.86,2,1.86,6t-1.86,6a7,7,0,0,1-5.36,2h-2.18a7,7,0,0,1-5.36-2c-1.24-1.31-1.85-3.31-1.85-6s.61-4.71,1.85-6a7,7,0,0,1,5.36-2Zm-2.18,2.79a4.21,4.21,0,0,0-3.37,1.23,6.14,6.14,0,0,0-1.05,4,6,6,0,0,0,1,3.95,4.22,4.22,0,0,0,3.38,1.21h2.18a4.21,4.21,0,0,0,3.35-1.22,6,6,0,0,0,1-4,6.16,6.16,0,0,0-1-4,4.16,4.16,0,0,0-3.36-1.23Z"/><path d="M128.19,256.75H125.4V244a3.54,3.54,0,0,1,.9-2.52,4.47,4.47,0,0,1,5.29-.16,5.31,5.31,0,0,1,1.36,2.16c1.87,4.08,2.8,6.12,4.66,10.2a1.36,1.36,0,0,0,.38.47,1.16,1.16,0,0,0,1.34-.05.92.92,0,0,0,.25-.65V240.78h2.81v12.75a3.54,3.54,0,0,1-.91,2.55,3.63,3.63,0,0,1-2.76,1,4.57,4.57,0,0,1-1.45-.21,3.1,3.1,0,0,1-1.09-.59,3.75,3.75,0,0,1-.79-.93,6.36,6.36,0,0,1-.57-1.23l-4.66-10.2a1,1,0,0,0-1-.69,1,1,0,0,0-.73.25,1,1,0,0,0-.25.68Z"/><path class="b" d="M155.34,240.78v16h-2.8v-16Z"/><path class="b" d="M162,256.75h-2.79V244a3.54,3.54,0,0,1,.9-2.52,4.47,4.47,0,0,1,5.29-.16,5.41,5.41,0,0,1,1.36,2.16l4.66,10.2a1.26,1.26,0,0,0,.38.47,1.16,1.16,0,0,0,1.34-.05.92.92,0,0,0,.24-.65V240.78h2.82v12.75a3.54,3.54,0,0,1-.91,2.55,3.64,3.64,0,0,1-2.76,1,4.57,4.57,0,0,1-1.45-.21,3.1,3.1,0,0,1-1.09-.59,3.75,3.75,0,0,1-.79-.93,5.82,5.82,0,0,1-.57-1.23c-1.87-4.08-2.8-6.12-4.66-10.2a1,1,0,0,0-1-.69,1,1,0,0,0-.72.25.91.91,0,0,0-.25.68Z"/><path class="b" d="M190.88,240.78v2.79h-4.66v13.18H183.4V243.57h-4.66v-2.79Z"/><path class="b" d="M206.26,240.78v2.79h-8a2.55,2.55,0,0,0-1.84.55,1.92,1.92,0,0,0-.57,1.46c0,1.26.81,1.9,2.44,1.9h7.85V250h-7.93c-1.62,0-2.43.65-2.43,1.94a1.88,1.88,0,0,0,.59,1.48,2.67,2.67,0,0,0,1.82.53h8.09v2.79h-8.09a7.84,7.84,0,0,1-2.43-.33,4.51,4.51,0,0,1-1.65-.91,3.39,3.39,0,0,1-1-1.39,5.09,5.09,0,0,1-.29-1.72,4.08,4.08,0,0,1,.59-2.29,3.73,3.73,0,0,1,1.7-1.38,3.52,3.52,0,0,1-2.25-3.6,5,5,0,0,1,.31-1.75,3.59,3.59,0,0,1,1-1.38,4.4,4.4,0,0,1,1.66-.9,8.11,8.11,0,0,1,2.42-.32Z"/><path class="b" d="M218.52,240.78a6.22,6.22,0,0,1,2.32.39,4.62,4.62,0,0,1,1.59,1,4,4,0,0,1,.93,1.53,5.83,5.83,0,0,1,.29,1.82,5.93,5.93,0,0,1-.19,1.5,4.79,4.79,0,0,1-.59,1.4,4.26,4.26,0,0,1-2.6,1.9c1.48,2.56,2.23,3.84,3.71,6.39h-3.1c-1.45-2.47-2.18-3.7-3.64-6.17h-4.17a.35.35,0,0,0-.4.4v5.77h-2.79v-6.32a2.7,2.7,0,0,1,.59-1.94,2.66,2.66,0,0,1,1.92-.59h6.22a2.44,2.44,0,0,0,1-.19,2,2,0,0,0,.69-.49,2.34,2.34,0,0,0,.39-.71,2.93,2.93,0,0,0,.13-.83,2.2,2.2,0,0,0-.54-1.48,2.09,2.09,0,0,0-1.69-.63h-8.75v-2.79Z"/><path class="b" d="M239.13,240.78v2.79h-8.19a2.12,2.12,0,0,0-1.59.53,1.93,1.93,0,0,0-.49,1.36,2.37,2.37,0,0,0,.1.7,1.6,1.6,0,0,0,.38.62,1.81,1.81,0,0,0,.72.42,3.45,3.45,0,0,0,1.16.16H235a7.51,7.51,0,0,1,2.68.41,4.43,4.43,0,0,1,1.64,1.08,3.57,3.57,0,0,1,.83,1.51,6.69,6.69,0,0,1,.22,1.71,5.87,5.87,0,0,1-.28,1.87,3.88,3.88,0,0,1-.9,1.48,4.33,4.33,0,0,1-1.57,1,6.93,6.93,0,0,1-2.33.35h-8.9V254h9a2.23,2.23,0,0,0,1.67-.56,2,2,0,0,0,.53-1.43,2.34,2.34,0,0,0-.12-.74,1.39,1.39,0,0,0-.4-.64,2.11,2.11,0,0,0-.77-.44A3.81,3.81,0,0,0,235,250h-3.71a7.24,7.24,0,0,1-2.63-.4,4.11,4.11,0,0,1-1.6-1.06,3.79,3.79,0,0,1-.8-1.49,6.31,6.31,0,0,1-.22-1.66,6,6,0,0,1,.27-1.83,3.67,3.67,0,0,1,.87-1.46,4.17,4.17,0,0,1,1.55-1,6.66,6.66,0,0,1,2.27-.34Z"/><path class="b" d="M253.61,240.78v2.79H249v13.18h-2.82V243.57h-4.66v-2.79Z"/><path class="b" d="M269,240.78v2.79h-8a2.56,2.56,0,0,0-1.84.55,1.92,1.92,0,0,0-.57,1.46c0,1.26.81,1.9,2.44,1.9h7.85V250H261c-1.63,0-2.44.65-2.44,1.94a1.91,1.91,0,0,0,.59,1.48,2.67,2.67,0,0,0,1.82.53H269v2.79h-8.09a7.82,7.82,0,0,1-2.42-.33,4.56,4.56,0,0,1-1.66-.91,3.49,3.49,0,0,1-.95-1.39,5.09,5.09,0,0,1-.29-1.72,4.08,4.08,0,0,1,.59-2.29,3.73,3.73,0,0,1,1.7-1.38,3.52,3.52,0,0,1-2.25-3.6,5,5,0,0,1,.31-1.75,3.59,3.59,0,0,1,1-1.38,4.4,4.4,0,0,1,1.66-.9,8.16,8.16,0,0,1,2.42-.32Z"/><path class="b" d="M275.26,240.78v10.43a3.49,3.49,0,0,0,.16,1.08,2,2,0,0,0,.53.88,2.84,2.84,0,0,0,1,.58,5.08,5.08,0,0,0,1.58.21h6.2v2.79h-6.37a8,8,0,0,1-2.71-.41,4.82,4.82,0,0,1-1.83-1.15,4.27,4.27,0,0,1-1-1.74,7.37,7.37,0,0,1-.32-2.21V240.78Z"/><path class="b" d="M289.55,240.78v10.43a3.49,3.49,0,0,0,.16,1.08,2,2,0,0,0,.53.88,2.8,2.8,0,0,0,1,.58,5,5,0,0,0,1.57.21H299v2.79h-6.37a8,8,0,0,1-2.71-.41,4.82,4.82,0,0,1-1.83-1.15,4.38,4.38,0,0,1-1-1.74,7.37,7.37,0,0,1-.32-2.21V240.78Z"/><path class="b" d="M303.23,256.75h-3.08c2.25-5.68,3.37-8.52,5.61-14.2A3,3,0,0,1,307,241a4.17,4.17,0,0,1,2.09-.46,4.12,4.12,0,0,1,2.07.46,2.9,2.9,0,0,1,1.25,1.59c2.15,5.68,3.23,8.52,5.39,14.2h-3.1l-4.85-12.85a.77.77,0,0,0-.78-.54.83.83,0,0,0-.81.54C306.27,249,305.26,251.61,303.23,256.75Z"/><path class="b" d="M328.81,240.78a6.22,6.22,0,0,1,2.32.39,4.57,4.57,0,0,1,1.6,1,4.1,4.1,0,0,1,.92,1.53,5.56,5.56,0,0,1,.3,1.82,6.42,6.42,0,0,1-.19,1.5,5.4,5.4,0,0,1-.59,1.4,4.55,4.55,0,0,1-1.05,1.15,4.36,4.36,0,0,1-1.56.75l3.72,6.39h-3.1l-3.65-6.17h-4.16a.35.35,0,0,0-.4.4v5.77h-2.8v-6.32a2.16,2.16,0,0,1,2.51-2.53h6.23a2.4,2.4,0,0,0,1-.19,1.79,1.79,0,0,0,.69-.49,2.34,2.34,0,0,0,.39-.71,2.62,2.62,0,0,0,.13-.83,2.24,2.24,0,0,0-.53-1.48,2.1,2.1,0,0,0-1.69-.63h-8.76v-2.79Z"/></svg>